<?xml version="1.0" standalone="no"?><!DOCTYPE svg PUBLIC "-//W3C//DTD SVG 1.1//EN" "http://www.w3.org/Graphics/SVG/1.1/DTD/svg11.dtd"><svg t="1766453028741" class="icon" viewBox="0 0 1066 1024" version="1.1" xmlns="http://www.w3.org/2000/svg" p-id="1685" xmlns:xlink="http://www.w3.org/1999/xlink" width="208.203125" height="200"><path d="M533.333 85.333C298.07 85.333 106.667 276.736 106.667 512s191.402 426.667 426.666 426.667S960 747.264 960 512 768.597 85.333 533.333 85.333z m302.208 229.718h-97.706c-14.08-51.072-33.28-96-56.747-132.139a363.05 363.05 0 0 1 154.453 132.139zM697.43 512a711.339 711.339 0 0 1-11.946 131.285H381.184a724.95 724.95 0 0 1 0-262.57h304.213A709.616 709.616 0 0 1 697.387 512zM533.333 873.045c-50.261 0-104.106-62.464-135.936-164.096h271.787c-31.701 101.632-85.59 164.096-135.85 164.096zM397.397 315.051c31.872-101.632 85.675-164.096 135.936-164.096S637.44 213.419 669.27 315.05H397.397zM385.58 182.912c-23.467 36.181-42.667 81.067-56.747 132.139h-97.707A363.05 363.05 0 0 1 385.58 182.912zM197.376 380.757h116.95a806.4 806.4 0 0 0 0 262.571h-116.95a356.352 356.352 0 0 1 0-262.57z m33.75 328.235h97.706c14.08 51.03 33.28 96 56.747 132.096a363.008 363.008 0 0 1-154.454-132.096z m449.962 132.096c23.467-36.139 42.667-81.067 56.747-132.096h97.706a363.008 363.008 0 0 1-154.453 132.096z m188.203-197.76H752.34a806.4 806.4 0 0 0 0-262.57h116.95a356.352 356.352 0 0 1 0 262.57z" p-id="1686"></path></svg>