<?xml version="1.0" standalone="no"?><!DOCTYPE svg PUBLIC "-//W3C//DTD SVG 1.1//EN" "http://www.w3.org/Graphics/SVG/1.1/DTD/svg11.dtd"><svg t="1766539495987" class="icon" viewBox="0 0 1024 1024" version="1.1" xmlns="http://www.w3.org/2000/svg" p-id="2048" xmlns:xlink="http://www.w3.org/1999/xlink" width="200" height="200"><path d="M597.333 682.667c-76.8 0-153.6-34.134-204.8-102.4-12.8-17.067-8.533-46.934 8.534-59.734 17.066-12.8 46.933-8.533 59.733 8.534 55.467 76.8 162.133 89.6 238.933 34.133 8.534-4.267 12.8-8.533 17.067-17.067l128-128c64-68.266 64-174.933-4.267-238.933s-170.666-64-238.933 0l-72.533 72.533c-17.067 17.067-42.667 17.067-59.734 0-17.066-17.066-17.066-42.666 0-59.733l72.534-72.533c98.133-98.134 256-98.134 354.133 0 102.4 98.133 102.4 260.266 4.267 362.666l-128 128c-8.534 8.534-17.067 17.067-29.867 25.6-38.4 29.867-89.6 46.934-145.067 46.934z" p-id="2049"></path><path d="M302.933 977.067c-64 0-128-25.6-179.2-72.534-102.4-98.133-102.4-260.266-4.266-362.666l128-128c8.533-4.267 17.066-12.8 25.6-21.334C328.533 349.867 396.8 332.8 460.8 345.6c68.267 8.533 128 46.933 166.4 98.133 12.8 17.067 8.533 46.934-8.533 59.734-17.067 12.8-46.934 8.533-59.734-8.534-25.6-38.4-68.266-59.733-110.933-68.266-46.933-8.534-89.6 4.266-128 34.133-8.533 4.267-12.8 8.533-17.067 17.067l-128 128c-64 68.266-64 174.933 4.267 238.933s170.667 64 238.933 0l72.534-72.533c17.066-17.067 42.666-17.067 59.733 0s17.067 42.666 0 59.733l-72.533 72.533c-46.934 51.2-110.934 72.534-174.934 72.534z" p-id="2050"></path></svg>